<svg width="300" height="300" viewBox="0 0 300 300" xmlns="http://www.w3.org/2000/svg"><defs><clipPath id="clip-path-background-color-1777238371830"><rect x="0" y="0" width="300" height="300"/></clipPath><clipPath id="clip-path-dot-color-1777238371830"><path d="M76.8481 7.9993h8.6061v8.6061h-8.6061v-8.6061zM94.0604 7.9993h8.6061h8.6061v8.6061h-8.6061v8.6061v8.6061h8.6061h8.6061v8.6061v8.6061h8.6061v8.6061h-8.6061v8.6061v8.6061v8.6061h-8.6061v-8.6061h-8.6061v-8.6061h8.6061v-8.6061h-8.6061v-8.6061h8.6061v-8.6061h-8.6061h-8.6061v-8.6061h-8.6061v-8.6061h8.6061v-8.6061v-8.6061zM128.4848 7.9993h8.6061h8.6061h8.6061h8.6061h8.6061v8.6061h-8.6061v8.6061h-8.6061v-8.6061h-8.6061h-8.6061h-8.6061v-8.6061zM205.9397 7.9993h8.6061v8.6061h-8.6061v-8.6061zM171.5152 16.6054h8.6061h8.6061v8.6061h8.6061v-8.6061h8.6061v8.6061h8.6061h8.6061v8.6061v8.6061v8.6061h-8.6061h-8.6061v-8.6061v-8.6061h-8.6061h-8.6061h-8.6061v8.6061h8.6061v8.6061h-8.6061v8.6061h-8.6061v8.6061v8.6061h-8.6061v8.6061h-8.6061v-8.6061h-8.6061h-8.6061v-8.6061h8.6061v-8.6061v-8.6061h8.6061h8.6061v-8.6061h-8.6061v-8.6061h8.6061h8.6061v-8.6061v-8.6061zM119.8787 25.2115h8.6061v8.6061h-8.6061v-8.6061zM76.8481 33.8176h8.6061v8.6061h8.6061v8.6061h-8.6061v8.6061v8.6061v8.6061v8.6061h-8.6061v8.6061v8.6061h8.6061h8.6061h8.6061v-8.6061h-8.6061h-8.6061v-8.6061h8.6061h8.6061h8.6061v8.6061h8.6061v8.6061v8.6061h-8.6061h-8.6061h-8.6061h-8.6061h-8.6061h-8.6061v-8.6061h-8.6061v-8.6061h8.6061v-8.6061h-8.6061v-8.6061h8.6061h8.6061v-8.6061v-8.6061v-8.6061v-8.6061v-8.6061zM128.4848 33.8176h8.6061v8.6061v8.6061h-8.6061v-8.6061v-8.6061zM162.9091 59.6359h-8.6061v8.6061h8.6061v-8.6061zM197.3336 51.0298h8.6061v8.6061v8.6061v8.6061v8.6061h8.6061v8.6061h8.6061h8.6061h8.6061v8.6061h-8.6061v8.6061h-8.6061h-8.6061v-8.6061h-8.6061v-8.6061h-8.6061v-8.6061h-8.6061v8.6061v8.6061h-8.6061v-8.6061v-8.6061h-8.6061v-8.6061h8.6061v-8.6061v-8.6061h8.6061v8.6061h8.6061v-8.6061v-8.6061zM94.0604 59.6359h8.6061v8.6061h-8.6061v-8.6061zM128.4848 59.6359h8.6061v8.6061h-8.6061v-8.6061zM214.5458 59.6359h8.6061v8.6061h-8.6061v-8.6061zM7.9993 76.8481h8.6061v8.6061h-8.6061v-8.6061zM42.4238 76.8481h8.6061v8.6061h8.6061v8.6061h-8.6061v8.6061h8.6061v8.6061h-8.6061v8.6061v8.6061h-8.6061h-8.6061v-8.6061v-8.6061h-8.6061v8.6061v8.6061v8.6061v8.6061h-8.6061v8.6061v8.6061h8.6061h8.6061v8.6061h-8.6061v8.6061h8.6061v-8.6061h8.6061v-8.6061v-8.6061h8.6061v8.6061v8.6061v8.6061v8.6061v8.6061h8.6061h8.6061v8.6061h-8.6061h-8.6061h-8.6061v-8.6061h-8.6061h-8.6061h-8.6061h-8.6061v-8.6061h8.6061v-8.6061v-8.6061h-8.6061v-8.6061v-8.6061v-8.6061v-8.6061h8.6061v-8.6061h-8.6061v-8.6061h8.6061v-8.6061v-8.6061h8.6061h8.6061h8.6061v-8.6061v-8.6061v-8.6061zM214.5458 76.8481h8.6061h8.6061h8.6061h8.6061h8.6061h8.6061v8.6061h8.6061v8.6061h-8.6061v8.6061h-8.6061v-8.6061v-8.6061h-8.6061v8.6061h-8.6061v-8.6061h-8.6061h-8.6061h-8.6061v-8.6061zM283.3946 76.8481h8.6061v8.6061h-8.6061v-8.6061zM25.2115 85.4542h8.6061v8.6061h-8.6061v-8.6061zM119.8787 85.4542h8.6061h8.6061h8.6061h8.6061v8.6061h-8.6061v8.6061h-8.6061v-8.6061h-8.6061h-8.6061v-8.6061zM162.9091 85.4542h8.6061v8.6061h-8.6061v-8.6061zM154.303 94.0604h8.6061v8.6061h8.6061h8.6061v8.6061h8.6061v-8.6061h8.6061h8.6061v8.6061h-8.6061v8.6061h-8.6061h-8.6061h-8.6061h-8.6061v-8.6061h-8.6061v-8.6061v-8.6061zM128.4848 102.6665h8.6061v8.6061v8.6061h-8.6061v8.6061h-8.6061v-8.6061v-8.6061h8.6061v-8.6061zM59.6359 111.2726h8.6061v8.6061h-8.6061v-8.6061zM231.758 111.2726h8.6061v8.6061h8.6061v8.6061h-8.6061h-8.6061v8.6061h8.6061v8.6061v8.6061h-8.6061v-8.6061h-8.6061h-8.6061h-8.6061v-8.6061h-8.6061v-8.6061v-8.6061h8.6061v8.6061h8.6061h8.6061v-8.6061h8.6061v-8.6061zM248.9702 111.2726h8.6061h8.6061v8.6061v8.6061h-8.6061v-8.6061h-8.6061v-8.6061zM283.3946 111.2726h8.6061v8.6061h-8.6061v-8.6061zM76.8481 119.8787h8.6061v8.6061h-8.6061v-8.6061zM94.0604 119.8787h8.6061v8.6061v8.6061h-8.6061v-8.6061v-8.6061zM145.6969 119.8787h8.6061h8.6061v8.6061h-8.6061v8.6061h-8.6061v-8.6061v-8.6061zM59.6359 128.4848h8.6061v8.6061h-8.6061v-8.6061zM128.4848 128.4848h8.6061v8.6061h-8.6061v-8.6061zM162.9091 128.4848h8.6061v8.6061h8.6061v8.6061v8.6061h-8.6061v-8.6061h-8.6061v8.6061h8.6061v8.6061v8.6061h-8.6061v-8.6061h-8.6061h-8.6061v8.6061h-8.6061v-8.6061h-8.6061v-8.6061h-8.6061v-8.6061v-8.6061h8.6061v8.6061h8.6061h8.6061h8.6061v-8.6061h8.6061v-8.6061zM248.9702 128.4848h8.6061v8.6061v8.6061v8.6061h-8.6061v-8.6061v-8.6061v-8.6061zM266.1824 128.4848h8.6061h8.6061v8.6061h-8.6061h-8.6061v-8.6061zM33.8176 137.0909h8.6061h8.6061h8.6061v8.6061h-8.6061h-8.6061v8.6061h-8.6061v-8.6061v-8.6061zM76.8481 137.0909h8.6061h8.6061v8.6061h-8.6061h-8.6061v-8.6061zM188.7274 137.0909h8.6061v8.6061h8.6061v8.6061h-8.6061h-8.6061v-8.6061v-8.6061zM59.6359 145.6969h8.6061h8.6061v8.6061h8.6061v8.6061h8.6061v8.6061h-8.6061h-8.6061v-8.6061h-8.6061v-8.6061h-8.6061v-8.6061zM94.0604 145.6969h8.6061h8.6061v8.6061h-8.6061v8.6061h-8.6061v-8.6061v-8.6061zM274.7885 145.6969h8.6061v8.6061v8.6061v8.6061v8.6061h8.6061v8.6061h-8.6061v8.6061v8.6061h-8.6061v-8.6061h-8.6061v-8.6061h8.6061v-8.6061v-8.6061v-8.6061h-8.6061v8.6061h-8.6061v-8.6061v-8.6061h8.6061h8.6061v-8.6061zM111.2726 154.303h8.6061v8.6061h-8.6061v-8.6061zM205.9397 154.303h8.6061v8.6061v8.6061h-8.6061h-8.6061v8.6061v8.6061h8.6061v8.6061h8.6061h8.6061v-8.6061h8.6061v8.6061v8.6061h8.6061v-8.6061v-8.6061h-8.6061v-8.6061h8.6061h8.6061h8.6061h8.6061v8.6061h-8.6061h-8.6061v8.6061v8.6061h8.6061v8.6061v8.6061v8.6061h8.6061v8.6061v8.6061v8.6061v8.6061v8.6061h-8.6061h-8.6061v8.6061h-8.6061v-8.6061h-8.6061v8.6061h8.6061v8.6061h-8.6061h-8.6061h-8.6061v-8.6061v-8.6061h8.6061v-8.6061h8.6061v-8.6061h-8.6061h-8.6061v-8.6061h-8.6061v-8.6061h8.6061v-8.6061v-8.6061h-8.6061h-8.6061h-8.6061v-8.6061h-8.6061v-8.6061h8.6061v-8.6061v-8.6061h-8.6061h-8.6061v-8.6061h8.6061v-8.6061h8.6061v-8.6061h8.6061h8.6061v-8.6061zM59.6359 162.9091h8.6061v8.6061h-8.6061v-8.6061zM102.6665 162.9091h8.6061v8.6061h-8.6061v-8.6061zM119.8787 162.9091h8.6061v8.6061v8.6061h-8.6061v-8.6061v-8.6061zM231.758 162.9091h8.6061v8.6061h-8.6061v-8.6061zM94.0604 171.5152h8.6061v8.6061h8.6061h8.6061v8.6061h8.6061v8.6061h-8.6061h-8.6061h-8.6061h-8.6061v-8.6061h-8.6061v-8.6061h8.6061v-8.6061zM214.5458 171.5152h8.6061h8.6061v8.6061h-8.6061v8.6061h-8.6061h-8.6061v-8.6061h8.6061v-8.6061zM59.6359 180.1213h8.6061h8.6061v8.6061h-8.6061h-8.6061v-8.6061zM128.4848 180.1213h8.6061h8.6061h8.6061v8.6061h-8.6061h-8.6061h-8.6061v-8.6061zM76.8481 188.7274h8.6061v8.6061h8.6061v8.6061h-8.6061h-8.6061v-8.6061v-8.6061zM154.303 188.7274h8.6061h8.6061v8.6061v8.6061v8.6061h8.6061v8.6061h-8.6061v8.6061h-8.6061v-8.6061h-8.6061v-8.6061h-8.6061h-8.6061h-8.6061v-8.6061h8.6061v-8.6061h8.6061v8.6061h8.6061v-8.6061v-8.6061zM68.242 205.9397h8.6061v8.6061v8.6061h-8.6061h-8.6061v-8.6061h8.6061v-8.6061zM102.6665 205.9397h8.6061v8.6061h-8.6061v-8.6061zM7.9993 214.5458h8.6061h8.6061h8.6061h8.6061h8.6061v8.6061h-8.6061h-8.6061h-8.6061h-8.6061h-8.6061v-8.6061zM85.4542 214.5458h8.6061h8.6061v8.6061h-8.6061v8.6061h-8.6061v8.6061h-8.6061v-8.6061v-8.6061h8.6061v-8.6061zM231.758 223.1519h-8.6061v8.6061v8.6061v8.6061h8.6061h8.6061h8.6061v-8.6061v-8.6061v-8.6061h-8.6061h-8.6061zM283.3946 214.5458h8.6061v8.6061h-8.6061v-8.6061zM102.6665 223.1519h8.6061v8.6061h-8.6061v-8.6061zM119.8787 223.1519h8.6061v8.6061h8.6061v-8.6061h8.6061h8.6061v8.6061h8.6061v8.6061h8.6061h8.6061v-8.6061h8.6061v8.6061h8.6061v8.6061v8.6061h8.6061h8.6061v8.6061h-8.6061h-8.6061h-8.6061h-8.6061v-8.6061h8.6061v-8.6061h-8.6061h-8.6061v8.6061h-8.6061v-8.6061h-8.6061v-8.6061h-8.6061v8.6061h-8.6061v-8.6061h-8.6061h-8.6061v-8.6061v-8.6061zM266.1824 223.1519h8.6061h8.6061v8.6061v8.6061h8.6061v8.6061h-8.6061h-8.6061v-8.6061v-8.6061h-8.6061v-8.6061zM94.0604 231.758h8.6061v8.6061h8.6061h8.6061v8.6061h-8.6061h-8.6061h-8.6061v8.6061v8.6061h-8.6061v-8.6061h-8.6061v-8.6061h8.6061v-8.6061h8.6061v-8.6061zM231.758 231.758h8.6061v8.6061h-8.6061v-8.6061zM128.4848 248.9702h8.6061v8.6061v8.6061h-8.6061h-8.6061v-8.6061h8.6061v-8.6061zM248.9702 257.5762h-8.6061v8.6061h8.6061v-8.6061zM102.6665 257.5762h8.6061v8.6061v8.6061h-8.6061v8.6061v8.6061h-8.6061h-8.6061h-8.6061v-8.6061h8.6061h8.6061v-8.6061v-8.6061h8.6061v-8.6061zM145.6969 257.5762h8.6061h8.6061v8.6061h-8.6061v8.6061h-8.6061v-8.6061v-8.6061zM162.9091 266.1824h8.6061v8.6061v8.6061h-8.6061v8.6061h-8.6061v-8.6061v-8.6061h8.6061v-8.6061zM111.2726 274.7885h8.6061h8.6061v8.6061h8.6061h8.6061v8.6061h-8.6061h-8.6061h-8.6061h-8.6061v-8.6061v-8.6061zM188.7274 274.7885h8.6061v8.6061h8.6061v8.6061h-8.6061h-8.6061h-8.6061v-8.6061h8.6061v-8.6061zM248.9702 283.3946h8.6061v8.6061h-8.6061v-8.6061zM283.3946 283.3946h8.6061v8.6061h-8.6061v-8.6061z" fill-rule="evenodd"/><path d="M7.9993 7.9993h8.6061h8.6061h8.6061h8.6061h8.6061h8.6061h8.6061v8.6061v8.6061v8.6061v8.6061v8.6061v8.6061v8.6061h-8.6061h-8.6061h-8.6061h-8.6061h-8.6061h-8.6061h-8.6061v-8.6061v-8.6061v-8.6061v-8.6061v-8.6061v-8.6061v-8.6061zM25.2115 16.6054h-8.6061v8.6061v8.6061v8.6061v8.6061v8.6061h8.6061h8.6061h8.6061h8.6061h8.6061v-8.6061v-8.6061v-8.6061v-8.6061v-8.6061h-8.6061h-8.6061h-8.6061h-8.6061z" fill-rule="evenodd"/><path d="M25.2115 25.2115h8.6061h8.6061h8.6061v8.6061v8.6061v8.6061h-8.6061h-8.6061h-8.6061v-8.6061v-8.6061v-8.6061z" fill-rule="evenodd"/><path d="M231.758 7.9993h8.6061h8.6061h8.6061h8.6061h8.6061h8.6061h8.6061v8.6061v8.6061v8.6061v8.6061v8.6061v8.6061v8.6061h-8.6061h-8.6061h-8.6061h-8.6061h-8.6061h-8.6061h-8.6061v-8.6061v-8.6061v-8.6061v-8.6061v-8.6061v-8.6061v-8.6061zM248.9702 16.6054h-8.6061v8.6061v8.6061v8.6061v8.6061v8.6061h8.6061h8.6061h8.6061h8.6061h8.6061v-8.6061v-8.6061v-8.6061v-8.6061v-8.6061h-8.6061h-8.6061h-8.6061h-8.6061z" fill-rule="evenodd"/><path d="M248.9702 25.2115h8.6061h8.6061h8.6061v8.6061v8.6061v8.6061h-8.6061h-8.6061h-8.6061v-8.6061v-8.6061v-8.6061z" fill-rule="evenodd"/><path d="M7.9993 231.758h8.6061h8.6061h8.6061h8.6061h8.6061h8.6061h8.6061v8.6061v8.6061v8.6061v8.6061v8.6061v8.6061v8.6061h-8.6061h-8.6061h-8.6061h-8.6061h-8.6061h-8.6061h-8.6061v-8.6061v-8.6061v-8.6061v-8.6061v-8.6061v-8.6061v-8.6061zM25.2115 240.3641h-8.6061v8.6061v8.6061v8.6061v8.6061v8.6061h8.6061h8.6061h8.6061h8.6061h8.6061v-8.6061v-8.6061v-8.6061v-8.6061v-8.6061h-8.6061h-8.6061h-8.6061h-8.6061z" fill-rule="evenodd"/><path d="M25.2115 248.9702h8.6061h8.6061h8.6061v8.6061v8.6061v8.6061h-8.6061h-8.6061h-8.6061v-8.6061v-8.6061v-8.6061z" fill-rule="evenodd"/></clipPath></defs><rect x="0" y="0" height="300" width="300" clip-path="url('#clip-path-background-color-1777238371830')" fill="#ffffff"/><rect x="0" y="0" height="300" width="300" clip-path="url('#clip-path-dot-color-1777238371830')" fill="#000000"/></svg>